<svg xmlns="http://www.w3.org/2000/svg" viewBox="0 0 49 49" shape-rendering="crispEdges" width="392" height="392">
<rect x="0" y="0" width="49" height="49" fill="#FFF"/>
<path fill="#000" d="M4 4h7v1h-7zM12 4h1v1h-1zM16 4h3v1h-3zM21 4h1v1h-1zM24 4h3v1h-3zM29 4h1v1h-1zM34 4h3v1h-3zM38 4h7v1h-7zM4 5h1v1h-1zM10 5h1v1h-1zM12 5h1v1h-1zM16 5h1v1h-1zM18 5h2v1h-2zM21 5h2v1h-2zM24 5h1v1h-1zM30 5h2v1h-2zM33 5h1v1h-1zM35 5h1v1h-1zM38 5h1v1h-1zM44 5h1v1h-1zM4 6h1v1h-1zM6 6h3v1h-3zM10 6h1v1h-1zM12 6h2v1h-2zM19 6h1v1h-1zM21 6h1v1h-1zM23 6h3v1h-3zM28 6h3v1h-3zM35 6h2v1h-2zM38 6h1v1h-1zM40 6h3v1h-3zM44 6h1v1h-1zM4 7h1v1h-1zM6 7h3v1h-3zM10 7h1v1h-1zM12 7h3v1h-3zM16 7h2v1h-2zM19 7h1v1h-1zM22 7h3v1h-3zM28 7h4v1h-4zM33 7h1v1h-1zM35 7h2v1h-2zM38 7h1v1h-1zM40 7h3v1h-3zM44 7h1v1h-1zM4 8h1v1h-1zM6 8h3v1h-3zM10 8h1v1h-1zM12 8h4v1h-4zM18 8h2v1h-2zM21 8h1v1h-1zM24 8h2v1h-2zM27 8h1v1h-1zM29 8h2v1h-2zM35 8h1v1h-1zM38 8h1v1h-1zM40 8h3v1h-3zM44 8h1v1h-1zM4 9h1v1h-1zM10 9h1v1h-1zM13 9h2v1h-2zM19 9h1v1h-1zM23 9h7v1h-7zM31 9h2v1h-2zM34 9h2v1h-2zM38 9h1v1h-1zM44 9h1v1h-1zM4 10h7v1h-7zM12 10h1v1h-1zM14 10h1v1h-1zM16 10h1v1h-1zM18 10h1v1h-1zM20 10h1v1h-1zM22 10h1v1h-1zM24 10h1v1h-1zM26 10h1v1h-1zM28 10h1v1h-1zM30 10h1v1h-1zM32 10h1v1h-1zM34 10h1v1h-1zM36 10h1v1h-1zM38 10h7v1h-7zM12 11h1v1h-1zM15 11h1v1h-1zM17 11h2v1h-2zM20 11h1v1h-1zM24 11h1v1h-1zM27 11h5v1h-5zM33 11h3v1h-3zM5 12h2v1h-2zM8 12h1v1h-1zM10 12h2v1h-2zM13 12h3v1h-3zM17 12h1v1h-1zM19 12h1v1h-1zM21 12h1v1h-1zM24 12h1v1h-1zM27 12h1v1h-1zM29 12h1v1h-1zM32 12h2v1h-2zM38 12h1v1h-1zM40 12h5v1h-5zM4 13h2v1h-2zM7 13h2v1h-2zM14 13h3v1h-3zM19 13h1v1h-1zM21 13h2v1h-2zM25 13h2v1h-2zM30 13h1v1h-1zM32 13h3v1h-3zM36 13h1v1h-1zM38 13h2v1h-2zM41 13h4v1h-4zM4 14h1v1h-1zM6 14h2v1h-2zM9 14h2v1h-2zM12 14h2v1h-2zM15 14h4v1h-4zM22 14h1v1h-1zM24 14h1v1h-1zM29 14h1v1h-1zM32 14h1v1h-1zM34 14h1v1h-1zM37 14h2v1h-2zM42 14h3v1h-3zM4 15h2v1h-2zM7 15h1v1h-1zM14 15h1v1h-1zM17 15h3v1h-3zM22 15h5v1h-5zM30 15h1v1h-1zM33 15h1v1h-1zM36 15h2v1h-2zM39 15h1v1h-1zM44 15h1v1h-1zM6 16h1v1h-1zM8 16h1v1h-1zM10 16h1v1h-1zM12 16h2v1h-2zM15 16h1v1h-1zM17 16h2v1h-2zM20 16h2v1h-2zM23 16h3v1h-3zM27 16h2v1h-2zM30 16h1v1h-1zM33 16h4v1h-4zM38 16h1v1h-1zM41 16h1v1h-1zM43 16h2v1h-2zM6 17h1v1h-1zM8 17h1v1h-1zM12 17h2v1h-2zM15 17h3v1h-3zM19 17h1v1h-1zM22 17h1v1h-1zM27 17h5v1h-5zM33 17h1v1h-1zM35 17h3v1h-3zM41 17h1v1h-1zM43 17h1v1h-1zM4 18h3v1h-3zM8 18h1v1h-1zM10 18h2v1h-2zM14 18h1v1h-1zM16 18h1v1h-1zM19 18h2v1h-2zM23 18h6v1h-6zM30 18h1v1h-1zM34 18h3v1h-3zM38 18h4v1h-4zM44 18h1v1h-1zM4 19h2v1h-2zM7 19h2v1h-2zM11 19h1v1h-1zM13 19h1v1h-1zM15 19h1v1h-1zM20 19h4v1h-4zM26 19h1v1h-1zM28 19h2v1h-2zM31 19h1v1h-1zM33 19h2v1h-2zM36 19h1v1h-1zM38 19h3v1h-3zM4 20h1v1h-1zM8 20h1v1h-1zM10 20h7v1h-7zM18 20h4v1h-4zM25 20h3v1h-3zM32 20h2v1h-2zM35 20h1v1h-1zM38 20h2v1h-2zM43 20h2v1h-2zM5 21h2v1h-2zM14 21h1v1h-1zM16 21h4v1h-4zM21 21h1v1h-1zM24 21h7v1h-7zM34 21h1v1h-1zM38 21h1v1h-1zM41 21h4v1h-4zM8 22h1v1h-1zM10 22h2v1h-2zM15 22h4v1h-4zM21 22h2v1h-2zM26 22h1v1h-1zM28 22h1v1h-1zM30 22h2v1h-2zM33 22h1v1h-1zM37 22h1v1h-1zM40 22h1v1h-1zM42 22h3v1h-3zM5 23h5v1h-5zM11 23h2v1h-2zM17 23h1v1h-1zM21 23h2v1h-2zM26 23h1v1h-1zM29 23h2v1h-2zM35 23h3v1h-3zM39 23h1v1h-1zM41 23h1v1h-1zM43 23h2v1h-2zM5 24h1v1h-1zM8 24h1v1h-1zM10 24h2v1h-2zM13 24h2v1h-2zM18 24h3v1h-3zM22 24h2v1h-2zM25 24h1v1h-1zM28 24h1v1h-1zM30 24h1v1h-1zM32 24h1v1h-1zM38 24h1v1h-1zM40 24h2v1h-2zM43 24h1v1h-1zM4 25h1v1h-1zM7 25h2v1h-2zM12 25h1v1h-1zM15 25h1v1h-1zM21 25h1v1h-1zM25 25h1v1h-1zM29 25h2v1h-2zM33 25h1v1h-1zM36 25h4v1h-4zM43 25h2v1h-2zM4 26h1v1h-1zM7 26h1v1h-1zM9 26h9v1h-9zM20 26h1v1h-1zM22 26h1v1h-1zM24 26h2v1h-2zM27 26h1v1h-1zM33 26h1v1h-1zM39 26h2v1h-2zM42 26h3v1h-3zM4 27h3v1h-3zM8 27h2v1h-2zM12 27h1v1h-1zM14 27h1v1h-1zM16 27h2v1h-2zM19 27h1v1h-1zM24 27h1v1h-1zM26 27h2v1h-2zM29 27h1v1h-1zM31 27h5v1h-5zM37 27h2v1h-2zM40 27h1v1h-1zM42 27h1v1h-1zM44 27h1v1h-1zM6 28h1v1h-1zM8 28h1v1h-1zM10 28h1v1h-1zM14 28h1v1h-1zM17 28h1v1h-1zM19 28h2v1h-2zM22 28h3v1h-3zM26 28h1v1h-1zM29 28h1v1h-1zM32 28h2v1h-2zM36 28h1v1h-1zM38 28h1v1h-1zM43 28h1v1h-1zM5 29h4v1h-4zM12 29h1v1h-1zM15 29h4v1h-4zM20 29h2v1h-2zM23 29h4v1h-4zM28 29h1v1h-1zM30 29h1v1h-1zM32 29h1v1h-1zM34 29h1v1h-1zM39 29h1v1h-1zM43 29h1v1h-1zM5 30h1v1h-1zM10 30h2v1h-2zM13 30h1v1h-1zM15 30h2v1h-2zM20 30h2v1h-2zM23 30h1v1h-1zM25 30h1v1h-1zM30 30h1v1h-1zM32 30h2v1h-2zM37 30h1v1h-1zM42 30h1v1h-1zM44 30h1v1h-1zM5 31h2v1h-2zM9 31h1v1h-1zM11 31h2v1h-2zM15 31h1v1h-1zM22 31h4v1h-4zM27 31h1v1h-1zM29 31h2v1h-2zM32 31h3v1h-3zM36 31h3v1h-3zM44 31h1v1h-1zM5 32h2v1h-2zM8 32h4v1h-4zM13 32h3v1h-3zM17 32h1v1h-1zM21 32h2v1h-2zM25 32h1v1h-1zM30 32h4v1h-4zM35 32h1v1h-1zM37 32h1v1h-1zM41 32h1v1h-1zM44 32h1v1h-1zM7 33h1v1h-1zM9 33h1v1h-1zM12 33h1v1h-1zM14 33h2v1h-2zM17 33h3v1h-3zM21 33h2v1h-2zM24 33h1v1h-1zM27 33h1v1h-1zM31 33h3v1h-3zM35 33h1v1h-1zM37 33h1v1h-1zM42 33h1v1h-1zM4 34h1v1h-1zM6 34h3v1h-3zM10 34h1v1h-1zM14 34h1v1h-1zM17 34h1v1h-1zM19 34h1v1h-1zM23 34h1v1h-1zM25 34h2v1h-2zM31 34h2v1h-2zM34 34h1v1h-1zM41 34h1v1h-1zM43 34h2v1h-2zM5 35h2v1h-2zM8 35h2v1h-2zM11 35h1v1h-1zM13 35h4v1h-4zM18 35h3v1h-3zM22 35h1v1h-1zM24 35h2v1h-2zM27 35h1v1h-1zM32 35h2v1h-2zM35 35h1v1h-1zM37 35h2v1h-2zM40 35h2v1h-2zM4 36h1v1h-1zM6 36h3v1h-3zM10 36h1v1h-1zM12 36h1v1h-1zM18 36h1v1h-1zM21 36h1v1h-1zM28 36h1v1h-1zM30 36h2v1h-2zM33 36h2v1h-2zM36 36h5v1h-5zM44 36h1v1h-1zM12 37h1v1h-1zM14 37h3v1h-3zM19 37h8v1h-8zM32 37h2v1h-2zM35 37h2v1h-2zM40 37h1v1h-1zM43 37h2v1h-2zM4 38h7v1h-7zM12 38h1v1h-1zM15 38h1v1h-1zM17 38h1v1h-1zM24 38h1v1h-1zM26 38h4v1h-4zM34 38h1v1h-1zM36 38h1v1h-1zM38 38h1v1h-1zM40 38h1v1h-1zM42 38h1v1h-1zM44 38h1v1h-1zM4 39h1v1h-1zM10 39h1v1h-1zM14 39h1v1h-1zM17 39h1v1h-1zM21 39h3v1h-3zM27 39h1v1h-1zM32 39h3v1h-3zM36 39h1v1h-1zM40 39h1v1h-1zM4 40h1v1h-1zM6 40h3v1h-3zM10 40h1v1h-1zM12 40h1v1h-1zM14 40h5v1h-5zM23 40h2v1h-2zM27 40h2v1h-2zM31 40h2v1h-2zM34 40h1v1h-1zM36 40h7v1h-7zM4 41h1v1h-1zM6 41h3v1h-3zM10 41h1v1h-1zM13 41h1v1h-1zM15 41h2v1h-2zM19 41h2v1h-2zM23 41h2v1h-2zM26 41h4v1h-4zM32 41h3v1h-3zM37 41h1v1h-1zM40 41h1v1h-1zM42 41h1v1h-1zM4 42h1v1h-1zM6 42h3v1h-3zM10 42h1v1h-1zM12 42h1v1h-1zM14 42h1v1h-1zM16 42h1v1h-1zM18 42h3v1h-3zM22 42h1v1h-1zM24 42h2v1h-2zM30 42h1v1h-1zM33 42h1v1h-1zM36 42h1v1h-1zM39 42h2v1h-2zM42 42h1v1h-1zM44 42h1v1h-1zM4 43h1v1h-1zM10 43h1v1h-1zM12 43h1v1h-1zM14 43h1v1h-1zM16 43h2v1h-2zM21 43h3v1h-3zM26 43h2v1h-2zM29 43h1v1h-1zM31 43h6v1h-6zM38 43h2v1h-2zM43 43h1v1h-1zM4 44h7v1h-7zM14 44h3v1h-3zM21 44h1v1h-1zM24 44h1v1h-1zM28 44h2v1h-2zM31 44h7v1h-7zM39 44h6v1h-6z"/>
</svg>