<svg xmlns="http://www.w3.org/2000/svg" viewBox="0 0 41 41" shape-rendering="crispEdges" width="328" height="328">
<rect x="0" y="0" width="41" height="41" fill="#FFF"/>
<path fill="#000" d="M4 4h7v1h-7zM13 4h3v1h-3zM20 4h1v1h-1zM23 4h3v1h-3zM27 4h2v1h-2zM30 4h7v1h-7zM4 5h1v1h-1zM10 5h1v1h-1zM12 5h1v1h-1zM15 5h1v1h-1zM18 5h1v1h-1zM20 5h2v1h-2zM26 5h3v1h-3zM30 5h1v1h-1zM36 5h1v1h-1zM4 6h1v1h-1zM6 6h3v1h-3zM10 6h1v1h-1zM12 6h3v1h-3zM16 6h1v1h-1zM18 6h1v1h-1zM20 6h1v1h-1zM22 6h2v1h-2zM27 6h1v1h-1zM30 6h1v1h-1zM32 6h3v1h-3zM36 6h1v1h-1zM4 7h1v1h-1zM6 7h3v1h-3zM10 7h1v1h-1zM13 7h2v1h-2zM20 7h1v1h-1zM22 7h1v1h-1zM28 7h1v1h-1zM30 7h1v1h-1zM32 7h3v1h-3zM36 7h1v1h-1zM4 8h1v1h-1zM6 8h3v1h-3zM10 8h1v1h-1zM13 8h5v1h-5zM21 8h2v1h-2zM25 8h4v1h-4zM30 8h1v1h-1zM32 8h3v1h-3zM36 8h1v1h-1zM4 9h1v1h-1zM10 9h1v1h-1zM14 9h1v1h-1zM16 9h1v1h-1zM19 9h2v1h-2zM25 9h1v1h-1zM28 9h1v1h-1zM30 9h1v1h-1zM36 9h1v1h-1zM4 10h7v1h-7zM12 10h1v1h-1zM14 10h1v1h-1zM16 10h1v1h-1zM18 10h1v1h-1zM20 10h1v1h-1zM22 10h1v1h-1zM24 10h1v1h-1zM26 10h1v1h-1zM28 10h1v1h-1zM30 10h7v1h-7zM13 11h2v1h-2zM17 11h1v1h-1zM19 11h3v1h-3zM23 11h1v1h-1zM27 11h1v1h-1zM5 12h3v1h-3zM9 12h2v1h-2zM14 12h1v1h-1zM16 12h1v1h-1zM21 12h2v1h-2zM25 12h1v1h-1zM27 12h2v1h-2zM34 12h2v1h-2zM6 13h2v1h-2zM9 13h1v1h-1zM11 13h3v1h-3zM15 13h5v1h-5zM21 13h1v1h-1zM23 13h5v1h-5zM30 13h2v1h-2zM33 13h2v1h-2zM36 13h1v1h-1zM5 14h1v1h-1zM8 14h4v1h-4zM13 14h2v1h-2zM17 14h3v1h-3zM22 14h1v1h-1zM24 14h2v1h-2zM27 14h7v1h-7zM35 14h2v1h-2zM6 15h2v1h-2zM11 15h1v1h-1zM13 15h1v1h-1zM15 15h1v1h-1zM21 15h1v1h-1zM23 15h1v1h-1zM27 15h1v1h-1zM31 15h1v1h-1zM33 15h1v1h-1zM36 15h1v1h-1zM5 16h3v1h-3zM10 16h4v1h-4zM16 16h2v1h-2zM23 16h2v1h-2zM26 16h2v1h-2zM29 16h1v1h-1zM32 16h2v1h-2zM11 17h1v1h-1zM14 17h1v1h-1zM17 17h2v1h-2zM20 17h1v1h-1zM24 17h1v1h-1zM29 17h3v1h-3zM34 17h2v1h-2zM4 18h1v1h-1zM6 18h1v1h-1zM8 18h1v1h-1zM10 18h4v1h-4zM16 18h1v1h-1zM18 18h4v1h-4zM23 18h2v1h-2zM26 18h1v1h-1zM28 18h1v1h-1zM30 18h5v1h-5zM5 19h1v1h-1zM8 19h1v1h-1zM14 19h1v1h-1zM17 19h2v1h-2zM21 19h2v1h-2zM25 19h1v1h-1zM29 19h3v1h-3zM33 19h2v1h-2zM7 20h2v1h-2zM10 20h1v1h-1zM12 20h3v1h-3zM16 20h4v1h-4zM21 20h1v1h-1zM25 20h2v1h-2zM29 20h2v1h-2zM32 20h3v1h-3zM4 21h1v1h-1zM6 21h1v1h-1zM8 21h2v1h-2zM12 21h1v1h-1zM19 21h1v1h-1zM21 21h2v1h-2zM24 21h1v1h-1zM26 21h5v1h-5zM32 21h2v1h-2zM35 21h2v1h-2zM6 22h3v1h-3zM10 22h2v1h-2zM14 22h5v1h-5zM24 22h1v1h-1zM28 22h1v1h-1zM31 22h2v1h-2zM34 22h2v1h-2zM5 23h1v1h-1zM7 23h2v1h-2zM11 23h6v1h-6zM20 23h1v1h-1zM23 23h1v1h-1zM28 23h3v1h-3zM32 23h1v1h-1zM5 24h1v1h-1zM9 24h2v1h-2zM12 24h2v1h-2zM15 24h4v1h-4zM21 24h1v1h-1zM26 24h2v1h-2zM33 24h2v1h-2zM36 24h1v1h-1zM4 25h6v1h-6zM11 25h2v1h-2zM14 25h2v1h-2zM19 25h2v1h-2zM24 25h2v1h-2zM29 25h1v1h-1zM33 25h1v1h-1zM36 25h1v1h-1zM6 26h1v1h-1zM8 26h1v1h-1zM10 26h1v1h-1zM15 26h5v1h-5zM21 26h1v1h-1zM23 26h2v1h-2zM27 26h1v1h-1zM29 26h1v1h-1zM31 26h2v1h-2zM35 26h2v1h-2zM5 27h1v1h-1zM7 27h1v1h-1zM9 27h1v1h-1zM11 27h4v1h-4zM18 27h4v1h-4zM24 27h1v1h-1zM27 27h3v1h-3zM36 27h1v1h-1zM4 28h1v1h-1zM7 28h4v1h-4zM13 28h1v1h-1zM15 28h4v1h-4zM20 28h2v1h-2zM23 28h1v1h-1zM26 28h1v1h-1zM28 28h5v1h-5zM35 28h1v1h-1zM12 29h2v1h-2zM15 29h1v1h-1zM17 29h1v1h-1zM19 29h2v1h-2zM23 29h1v1h-1zM25 29h4v1h-4zM32 29h2v1h-2zM4 30h7v1h-7zM14 30h3v1h-3zM18 30h6v1h-6zM25 30h1v1h-1zM27 30h2v1h-2zM30 30h1v1h-1zM32 30h1v1h-1zM35 30h1v1h-1zM4 31h1v1h-1zM10 31h1v1h-1zM12 31h4v1h-4zM19 31h3v1h-3zM23 31h1v1h-1zM27 31h2v1h-2zM32 31h3v1h-3zM4 32h1v1h-1zM6 32h3v1h-3zM10 32h1v1h-1zM14 32h1v1h-1zM17 32h2v1h-2zM22 32h1v1h-1zM26 32h7v1h-7zM34 32h1v1h-1zM36 32h1v1h-1zM4 33h1v1h-1zM6 33h3v1h-3zM10 33h1v1h-1zM12 33h1v1h-1zM14 33h4v1h-4zM19 33h5v1h-5zM25 33h3v1h-3zM31 33h1v1h-1zM33 33h4v1h-4zM4 34h1v1h-1zM6 34h3v1h-3zM10 34h1v1h-1zM12 34h2v1h-2zM17 34h2v1h-2zM20 34h1v1h-1zM24 34h2v1h-2zM30 34h2v1h-2zM33 34h1v1h-1zM4 35h1v1h-1zM10 35h1v1h-1zM12 35h2v1h-2zM15 35h2v1h-2zM18 35h5v1h-5zM24 35h1v1h-1zM26 35h1v1h-1zM30 35h3v1h-3zM36 35h1v1h-1zM4 36h7v1h-7zM16 36h2v1h-2zM22 36h2v1h-2zM25 36h1v1h-1zM27 36h1v1h-1zM32 36h1v1h-1zM34 36h1v1h-1z"/>
</svg>