<svg xmlns="http://www.w3.org/2000/svg" viewBox="0 0 41 41" shape-rendering="crispEdges" width="328" height="328">
<rect x="0" y="0" width="41" height="41" fill="#FFF"/>
<path fill="#000" d="M4 4h7v1h-7zM12 4h10v1h-10zM23 4h2v1h-2zM27 4h1v1h-1zM30 4h7v1h-7zM4 5h1v1h-1zM10 5h1v1h-1zM15 5h1v1h-1zM17 5h2v1h-2zM20 5h2v1h-2zM26 5h1v1h-1zM28 5h1v1h-1zM30 5h1v1h-1zM36 5h1v1h-1zM4 6h1v1h-1zM6 6h3v1h-3zM10 6h1v1h-1zM14 6h1v1h-1zM18 6h7v1h-7zM28 6h1v1h-1zM30 6h1v1h-1zM32 6h3v1h-3zM36 6h1v1h-1zM4 7h1v1h-1zM6 7h3v1h-3zM10 7h1v1h-1zM14 7h1v1h-1zM16 7h2v1h-2zM20 7h1v1h-1zM23 7h6v1h-6zM30 7h1v1h-1zM32 7h3v1h-3zM36 7h1v1h-1zM4 8h1v1h-1zM6 8h3v1h-3zM10 8h1v1h-1zM12 8h2v1h-2zM15 8h2v1h-2zM18 8h3v1h-3zM22 8h1v1h-1zM25 8h1v1h-1zM28 8h1v1h-1zM30 8h1v1h-1zM32 8h3v1h-3zM36 8h1v1h-1zM4 9h1v1h-1zM10 9h1v1h-1zM12 9h1v1h-1zM14 9h1v1h-1zM16 9h2v1h-2zM20 9h3v1h-3zM24 9h2v1h-2zM30 9h1v1h-1zM36 9h1v1h-1zM4 10h7v1h-7zM12 10h1v1h-1zM14 10h1v1h-1zM16 10h1v1h-1zM18 10h1v1h-1zM20 10h1v1h-1zM22 10h1v1h-1zM24 10h1v1h-1zM26 10h1v1h-1zM28 10h1v1h-1zM30 10h7v1h-7zM18 11h3v1h-3zM25 11h2v1h-2zM5 12h7v1h-7zM13 12h1v1h-1zM15 12h3v1h-3zM20 12h2v1h-2zM26 12h3v1h-3zM31 12h2v1h-2zM36 12h1v1h-1zM4 13h1v1h-1zM6 13h1v1h-1zM12 13h3v1h-3zM17 13h3v1h-3zM22 13h2v1h-2zM25 13h1v1h-1zM27 13h1v1h-1zM30 13h2v1h-2zM33 13h2v1h-2zM36 13h1v1h-1zM4 14h1v1h-1zM6 14h1v1h-1zM10 14h4v1h-4zM15 14h1v1h-1zM18 14h2v1h-2zM22 14h1v1h-1zM25 14h1v1h-1zM32 14h1v1h-1zM34 14h2v1h-2zM4 15h1v1h-1zM6 15h2v1h-2zM9 15h1v1h-1zM16 15h2v1h-2zM25 15h2v1h-2zM30 15h1v1h-1zM32 15h5v1h-5zM4 16h1v1h-1zM6 16h5v1h-5zM12 16h2v1h-2zM16 16h3v1h-3zM20 16h1v1h-1zM22 16h2v1h-2zM25 16h1v1h-1zM27 16h3v1h-3zM32 16h2v1h-2zM36 16h1v1h-1zM4 17h1v1h-1zM7 17h2v1h-2zM11 17h2v1h-2zM16 17h1v1h-1zM20 17h1v1h-1zM24 17h1v1h-1zM26 17h2v1h-2zM30 17h1v1h-1zM33 17h4v1h-4zM4 18h1v1h-1zM6 18h1v1h-1zM8 18h4v1h-4zM16 18h1v1h-1zM19 18h1v1h-1zM21 18h3v1h-3zM25 18h2v1h-2zM29 18h2v1h-2zM33 18h3v1h-3zM4 19h1v1h-1zM6 19h1v1h-1zM8 19h1v1h-1zM12 19h2v1h-2zM15 19h4v1h-4zM21 19h1v1h-1zM23 19h5v1h-5zM29 19h6v1h-6zM6 20h1v1h-1zM8 20h3v1h-3zM12 20h1v1h-1zM14 20h2v1h-2zM18 20h2v1h-2zM21 20h1v1h-1zM23 20h1v1h-1zM26 20h4v1h-4zM31 20h2v1h-2zM36 20h1v1h-1zM4 21h1v1h-1zM6 21h1v1h-1zM9 21h1v1h-1zM12 21h1v1h-1zM18 21h1v1h-1zM21 21h1v1h-1zM23 21h2v1h-2zM27 21h2v1h-2zM30 21h2v1h-2zM33 21h2v1h-2zM36 21h1v1h-1zM4 22h1v1h-1zM6 22h5v1h-5zM13 22h1v1h-1zM15 22h1v1h-1zM17 22h2v1h-2zM24 22h1v1h-1zM26 22h1v1h-1zM28 22h1v1h-1zM31 22h2v1h-2zM34 22h2v1h-2zM6 23h1v1h-1zM8 23h2v1h-2zM12 23h3v1h-3zM17 23h2v1h-2zM21 23h3v1h-3zM27 23h1v1h-1zM29 23h1v1h-1zM31 23h5v1h-5zM6 24h7v1h-7zM15 24h1v1h-1zM18 24h5v1h-5zM24 24h5v1h-5zM31 24h3v1h-3zM4 25h2v1h-2zM9 25h1v1h-1zM11 25h3v1h-3zM15 25h1v1h-1zM17 25h1v1h-1zM19 25h1v1h-1zM21 25h2v1h-2zM25 25h1v1h-1zM27 25h1v1h-1zM30 25h1v1h-1zM33 25h2v1h-2zM36 25h1v1h-1zM4 26h1v1h-1zM6 26h1v1h-1zM8 26h4v1h-4zM13 26h1v1h-1zM15 26h1v1h-1zM19 26h1v1h-1zM21 26h2v1h-2zM24 26h3v1h-3zM29 26h1v1h-1zM31 26h1v1h-1zM34 26h2v1h-2zM4 27h1v1h-1zM6 27h2v1h-2zM9 27h1v1h-1zM11 27h2v1h-2zM14 27h1v1h-1zM17 27h3v1h-3zM25 27h5v1h-5zM31 27h4v1h-4zM4 28h1v1h-1zM10 28h2v1h-2zM13 28h2v1h-2zM26 28h1v1h-1zM28 28h6v1h-6zM35 28h1v1h-1zM12 29h1v1h-1zM15 29h7v1h-7zM23 29h3v1h-3zM28 29h1v1h-1zM32 29h1v1h-1zM34 29h1v1h-1zM36 29h1v1h-1zM4 30h7v1h-7zM12 30h3v1h-3zM16 30h1v1h-1zM18 30h3v1h-3zM22 30h1v1h-1zM24 30h2v1h-2zM27 30h2v1h-2zM30 30h1v1h-1zM32 30h1v1h-1zM34 30h2v1h-2zM4 31h1v1h-1zM10 31h1v1h-1zM12 31h1v1h-1zM15 31h2v1h-2zM18 31h2v1h-2zM24 31h5v1h-5zM32 31h3v1h-3zM4 32h1v1h-1zM6 32h3v1h-3zM10 32h1v1h-1zM12 32h1v1h-1zM14 32h2v1h-2zM21 32h2v1h-2zM25 32h1v1h-1zM28 32h6v1h-6zM36 32h1v1h-1zM4 33h1v1h-1zM6 33h3v1h-3zM10 33h1v1h-1zM12 33h1v1h-1zM15 33h4v1h-4zM20 33h1v1h-1zM22 33h1v1h-1zM24 33h1v1h-1zM26 33h4v1h-4zM32 33h1v1h-1zM34 33h1v1h-1zM36 33h1v1h-1zM4 34h1v1h-1zM6 34h3v1h-3zM10 34h1v1h-1zM12 34h3v1h-3zM17 34h1v1h-1zM20 34h2v1h-2zM23 34h1v1h-1zM25 34h2v1h-2zM30 34h2v1h-2zM33 34h1v1h-1zM4 35h1v1h-1zM10 35h1v1h-1zM12 35h1v1h-1zM14 35h3v1h-3zM18 35h1v1h-1zM20 35h6v1h-6zM29 35h2v1h-2zM32 35h3v1h-3zM4 36h7v1h-7zM13 36h1v1h-1zM15 36h1v1h-1zM17 36h3v1h-3zM21 36h1v1h-1zM23 36h1v1h-1zM26 36h3v1h-3zM30 36h2v1h-2zM35 36h1v1h-1z"/>
</svg>